<svg xmlns="http://www.w3.org/2000/svg" xmlns:xlink="http://www.w3.org/1999/xlink" zoomAndPan="magnify" preserveAspectRatio="xMidYMid meet" version="1.0" viewBox="78.28 104.03 219.95 155.5"><defs><g/><clipPath id="fa8a7d3dbc"><path d="M 78.277344 172.078125 L 298.222656 172.078125 L 298.222656 197.695312 L 78.277344 197.695312 Z M 78.277344 172.078125 " clip-rule="nonzero"/></clipPath></defs><path stroke-linecap="butt" transform="matrix(0.00181868, -0.749657, 0.749998, 0.00181951, 187.12366, 259.034016)" fill="none" stroke-linejoin="miter" d="M -0.000303406 0.501789 L 206.099276 0.502016 " stroke="#000000" stroke-width="1" stroke-opacity="1" stroke-miterlimit="4"/><g fill="#000000" fill-opacity="1"><g transform="translate(96.357229, 228.61954)"><g><path d="M 2.761719 -91.1875 C 10.683594 -91.1875 11.238281 -84.648438 11.238281 -66.5 L 11.238281 -25.605469 C 11.238281 -7.460938 10.683594 -0.921875 2.761719 -0.921875 L 2.761719 0 L 27.539062 0 L 27.539062 -0.921875 C 19.617188 -0.921875 19.066406 -7.460938 19.066406 -25.605469 L 19.066406 -40.527344 C 23.027344 -38.777344 32.144531 -36.199219 40.25 -36.199219 C 60.699219 -36.199219 71.75 -50.199219 71.75 -65.210938 C 71.75 -81.605469 60.789062 -93.949219 41.171875 -93.949219 C 30.488281 -93.949219 23.949219 -92.109375 13.816406 -92.109375 L 2.761719 -92.109375 Z M 19.066406 -41.449219 L 19.066406 -89.710938 C 24.683594 -91.738281 29.105469 -92.660156 35.921875 -92.660156 C 53.054688 -92.660156 63.832031 -81.792969 63.832031 -65.121094 C 63.832031 -54.066406 56.921875 -38.039062 38.59375 -38.039062 C 30.578125 -38.039062 23.765625 -39.515625 19.066406 -41.449219 Z M 19.066406 -41.449219 "/></g></g></g><g fill="#000000" fill-opacity="1"><g transform="translate(200.615244, 228.61954)"><g><path d="M 2.761719 -91.1875 C 10.683594 -91.1875 11.238281 -84.648438 11.238281 -66.5 L 11.238281 -25.605469 C 11.238281 -7.460938 10.683594 -0.921875 2.761719 -0.921875 L 2.761719 0 L 27.539062 0 L 27.539062 -0.921875 C 19.617188 -0.921875 19.066406 -7.460938 19.066406 -25.605469 L 19.066406 -40.527344 C 23.027344 -38.777344 32.144531 -36.199219 40.25 -36.199219 C 60.699219 -36.199219 71.75 -50.199219 71.75 -65.210938 C 71.75 -81.605469 60.789062 -93.949219 41.171875 -93.949219 C 30.488281 -93.949219 23.949219 -92.109375 13.816406 -92.109375 L 2.761719 -92.109375 Z M 19.066406 -41.449219 L 19.066406 -89.710938 C 24.683594 -91.738281 29.105469 -92.660156 35.921875 -92.660156 C 53.054688 -92.660156 63.832031 -81.792969 63.832031 -65.121094 C 63.832031 -54.066406 56.921875 -38.039062 38.59375 -38.039062 C 30.578125 -38.039062 23.765625 -39.515625 19.066406 -41.449219 Z M 19.066406 -41.449219 "/></g></g></g><g clip-path="url(#fa8a7d3dbc)"><path fill="#ffffff" d="M 78.277344 172.078125 L 298.207031 172.078125 L 298.207031 197.953125 L 78.277344 197.953125 Z M 78.277344 172.078125 " fill-opacity="1" fill-rule="nonzero"/></g><g fill="#000000" fill-opacity="1"><g transform="translate(95.787757, 189.572433)"><g><path d="M 5.46875 -10.171875 C 6.757812 -10.171875 7.773438 -9.859375 8.515625 -9.234375 C 9.253906 -8.617188 9.625 -7.769531 9.625 -6.6875 C 9.625 -5.601562 9.253906 -4.753906 8.515625 -4.140625 C 7.773438 -3.523438 6.757812 -3.21875 5.46875 -3.21875 L 2.734375 -3.21875 L 2.734375 0 L 1.65625 0 L 1.65625 -10.171875 Z M 5.4375 -4.15625 C 6.445312 -4.15625 7.21875 -4.375 7.75 -4.8125 C 8.28125 -5.257812 8.546875 -5.882812 8.546875 -6.6875 C 8.546875 -7.507812 8.28125 -8.140625 7.75 -8.578125 C 7.21875 -9.015625 6.445312 -9.234375 5.4375 -9.234375 L 2.734375 -9.234375 L 2.734375 -4.15625 Z M 5.4375 -4.15625 "/></g></g></g><g fill="#000000" fill-opacity="1"><g transform="translate(110.847443, 189.572433)"><g><path d="M 8.03125 -2.71875 L 2.375 -2.71875 L 1.140625 0 L 0.03125 0 L 4.671875 -10.171875 L 5.734375 -10.171875 L 10.390625 0 L 9.25 0 Z M 7.640625 -3.59375 L 5.203125 -9.046875 L 2.765625 -3.59375 Z M 7.640625 -3.59375 "/></g></g></g><g fill="#000000" fill-opacity="1"><g transform="translate(125.892617, 189.572433)"><g><path d="M 3.625 -9.234375 L 0.0625 -9.234375 L 0.0625 -10.171875 L 8.28125 -10.171875 L 8.28125 -9.234375 L 4.703125 -9.234375 L 4.703125 0 L 3.625 0 Z M 3.625 -9.234375 "/></g></g></g><g fill="#000000" fill-opacity="1"><g transform="translate(138.861501, 189.572433)"><g><path d="M 8.609375 0 L 6.28125 -3.265625 C 6.019531 -3.234375 5.75 -3.21875 5.46875 -3.21875 L 2.734375 -3.21875 L 2.734375 0 L 1.65625 0 L 1.65625 -10.171875 L 5.46875 -10.171875 C 6.757812 -10.171875 7.773438 -9.859375 8.515625 -9.234375 C 9.253906 -8.617188 9.625 -7.769531 9.625 -6.6875 C 9.625 -5.894531 9.421875 -5.222656 9.015625 -4.671875 C 8.609375 -4.117188 8.035156 -3.722656 7.296875 -3.484375 L 9.78125 0 Z M 5.4375 -4.140625 C 6.445312 -4.140625 7.21875 -4.363281 7.75 -4.8125 C 8.28125 -5.257812 8.546875 -5.882812 8.546875 -6.6875 C 8.546875 -7.507812 8.28125 -8.140625 7.75 -8.578125 C 7.21875 -9.015625 6.445312 -9.234375 5.4375 -9.234375 L 2.734375 -9.234375 L 2.734375 -4.140625 Z M 5.4375 -4.140625 "/></g></g></g><g fill="#000000" fill-opacity="1"><g transform="translate(153.993788, 189.572433)"><g><path d="M 5.140625 -3.515625 L 5.140625 0 L 4.078125 0 L 4.078125 -3.515625 L 0.015625 -10.171875 L 1.15625 -10.171875 L 4.65625 -4.46875 L 8.140625 -10.171875 L 9.21875 -10.171875 Z M 5.140625 -3.515625 "/></g></g></g><g fill="#000000" fill-opacity="1"><g transform="translate(167.848354, 189.572433)"><g><path d="M 4.8125 -4.78125 L 2.734375 -2.671875 L 2.734375 0 L 1.65625 0 L 1.65625 -10.171875 L 2.734375 -10.171875 L 2.734375 -4.03125 L 8.703125 -10.171875 L 9.9375 -10.171875 L 5.53125 -5.5625 L 10.25 0 L 8.96875 0 Z M 4.8125 -4.78125 "/></g></g></g><g fill="#000000" fill-opacity="1"><g transform="translate(182.806405, 189.572433)"><g/></g></g><g fill="#000000" fill-opacity="1"><g transform="translate(191.245191, 189.572433)"><g><path d="M 5.46875 -10.171875 C 6.757812 -10.171875 7.773438 -9.859375 8.515625 -9.234375 C 9.253906 -8.617188 9.625 -7.769531 9.625 -6.6875 C 9.625 -5.601562 9.253906 -4.753906 8.515625 -4.140625 C 7.773438 -3.523438 6.757812 -3.21875 5.46875 -3.21875 L 2.734375 -3.21875 L 2.734375 0 L 1.65625 0 L 1.65625 -10.171875 Z M 5.4375 -4.15625 C 6.445312 -4.15625 7.21875 -4.375 7.75 -4.8125 C 8.28125 -5.257812 8.546875 -5.882812 8.546875 -6.6875 C 8.546875 -7.507812 8.28125 -8.140625 7.75 -8.578125 C 7.21875 -9.015625 6.445312 -9.234375 5.4375 -9.234375 L 2.734375 -9.234375 L 2.734375 -4.15625 Z M 5.4375 -4.15625 "/></g></g></g><g fill="#000000" fill-opacity="1"><g transform="translate(206.304877, 189.572433)"><g><path d="M 5.75 0.09375 C 4.4375 0.09375 3.410156 -0.28125 2.671875 -1.03125 C 1.929688 -1.789062 1.5625 -2.894531 1.5625 -4.34375 L 1.5625 -10.171875 L 2.640625 -10.171875 L 2.640625 -4.390625 C 2.640625 -3.203125 2.90625 -2.316406 3.4375 -1.734375 C 3.976562 -1.160156 4.75 -0.875 5.75 -0.875 C 6.769531 -0.875 7.546875 -1.160156 8.078125 -1.734375 C 8.609375 -2.316406 8.875 -3.203125 8.875 -4.390625 L 8.875 -10.171875 L 9.921875 -10.171875 L 9.921875 -4.34375 C 9.921875 -2.894531 9.554688 -1.789062 8.828125 -1.03125 C 8.097656 -0.28125 7.070312 0.09375 5.75 0.09375 Z M 5.75 0.09375 "/></g></g></g><g fill="#000000" fill-opacity="1"><g transform="translate(222.439009, 189.572433)"><g><path d="M 10.15625 -10.171875 L 10.15625 0 L 9.09375 0 L 9.09375 -4.6875 L 2.734375 -4.6875 L 2.734375 0 L 1.65625 0 L 1.65625 -10.171875 L 2.734375 -10.171875 L 2.734375 -5.640625 L 9.09375 -5.640625 L 9.09375 -10.171875 Z M 10.15625 -10.171875 "/></g></g></g><g fill="#000000" fill-opacity="1"><g transform="translate(238.878057, 189.572433)"><g><path d="M 8.03125 -2.71875 L 2.375 -2.71875 L 1.140625 0 L 0.03125 0 L 4.671875 -10.171875 L 5.734375 -10.171875 L 10.390625 0 L 9.25 0 Z M 7.640625 -3.59375 L 5.203125 -9.046875 L 2.765625 -3.59375 Z M 7.640625 -3.59375 "/></g></g></g><g fill="#000000" fill-opacity="1"><g transform="translate(253.923237, 189.572433)"><g><path d="M 6.078125 0.09375 C 5.066406 0.09375 4.15625 -0.128906 3.34375 -0.578125 C 2.539062 -1.023438 1.90625 -1.644531 1.4375 -2.4375 C 0.976562 -3.226562 0.75 -4.109375 0.75 -5.078125 C 0.75 -6.054688 0.976562 -6.941406 1.4375 -7.734375 C 1.90625 -8.523438 2.546875 -9.144531 3.359375 -9.59375 C 4.171875 -10.039062 5.082031 -10.265625 6.09375 -10.265625 C 6.84375 -10.265625 7.535156 -10.132812 8.171875 -9.875 C 8.816406 -9.625 9.363281 -9.257812 9.8125 -8.78125 L 9.125 -8.09375 C 8.332031 -8.894531 7.332031 -9.296875 6.125 -9.296875 C 5.3125 -9.296875 4.578125 -9.113281 3.921875 -8.75 C 3.265625 -8.382812 2.75 -7.878906 2.375 -7.234375 C 2 -6.597656 1.8125 -5.878906 1.8125 -5.078125 C 1.8125 -4.285156 2 -3.566406 2.375 -2.921875 C 2.75 -2.285156 3.265625 -1.785156 3.921875 -1.421875 C 4.578125 -1.054688 5.3125 -0.875 6.125 -0.875 C 7.34375 -0.875 8.34375 -1.28125 9.125 -2.09375 L 9.8125 -1.40625 C 9.363281 -0.925781 8.816406 -0.554688 8.171875 -0.296875 C 7.523438 -0.0351562 6.828125 0.09375 6.078125 0.09375 Z M 6.078125 0.09375 "/></g></g></g><g fill="#000000" fill-opacity="1"><g transform="translate(268.99744, 189.572433)"><g><path d="M 9 -0.9375 L 9 0 L 0.65625 0 L 0.65625 -0.734375 L 7.390625 -9.234375 L 0.75 -9.234375 L 0.75 -10.171875 L 8.828125 -10.171875 L 8.828125 -9.4375 L 2.09375 -0.9375 Z M 9 -0.9375 "/></g></g></g></svg>