<svg xmlns="http://www.w3.org/2000/svg" xmlns:xlink="http://www.w3.org/1999/xlink" zoomAndPan="magnify" preserveAspectRatio="xMidYMid meet" version="1.0" viewBox="99.12 104.03 173.25 155.5"><defs><g/></defs><path stroke-linecap="butt" transform="matrix(0.00181868, -0.749657, 0.749998, 0.00181951, 187.12366, 259.034016)" fill="none" stroke-linejoin="miter" d="M -0.000303406 0.501789 L 206.099276 0.502016 " stroke="#000000" stroke-width="1" stroke-opacity="1" stroke-miterlimit="4"/><g fill="#000000" fill-opacity="1"><g transform="translate(96.357229, 228.61954)"><g><path d="M 2.761719 -91.1875 C 10.683594 -91.1875 11.238281 -84.648438 11.238281 -66.5 L 11.238281 -25.605469 C 11.238281 -7.460938 10.683594 -0.921875 2.761719 -0.921875 L 2.761719 0 L 27.539062 0 L 27.539062 -0.921875 C 19.617188 -0.921875 19.066406 -7.460938 19.066406 -25.605469 L 19.066406 -40.527344 C 23.027344 -38.777344 32.144531 -36.199219 40.25 -36.199219 C 60.699219 -36.199219 71.75 -50.199219 71.75 -65.210938 C 71.75 -81.605469 60.789062 -93.949219 41.171875 -93.949219 C 30.488281 -93.949219 23.949219 -92.109375 13.816406 -92.109375 L 2.761719 -92.109375 Z M 19.066406 -41.449219 L 19.066406 -89.710938 C 24.683594 -91.738281 29.105469 -92.660156 35.921875 -92.660156 C 53.054688 -92.660156 63.832031 -81.792969 63.832031 -65.121094 C 63.832031 -54.066406 56.921875 -38.039062 38.59375 -38.039062 C 30.578125 -38.039062 23.765625 -39.515625 19.066406 -41.449219 Z M 19.066406 -41.449219 "/></g></g></g><g fill="#000000" fill-opacity="1"><g transform="translate(200.615244, 228.61954)"><g><path d="M 2.761719 -91.1875 C 10.683594 -91.1875 11.238281 -84.648438 11.238281 -66.5 L 11.238281 -25.605469 C 11.238281 -7.460938 10.683594 -0.921875 2.761719 -0.921875 L 2.761719 0 L 27.539062 0 L 27.539062 -0.921875 C 19.617188 -0.921875 19.066406 -7.460938 19.066406 -25.605469 L 19.066406 -40.527344 C 23.027344 -38.777344 32.144531 -36.199219 40.25 -36.199219 C 60.699219 -36.199219 71.75 -50.199219 71.75 -65.210938 C 71.75 -81.605469 60.789062 -93.949219 41.171875 -93.949219 C 30.488281 -93.949219 23.949219 -92.109375 13.816406 -92.109375 L 2.761719 -92.109375 Z M 19.066406 -41.449219 L 19.066406 -89.710938 C 24.683594 -91.738281 29.105469 -92.660156 35.921875 -92.660156 C 53.054688 -92.660156 63.832031 -81.792969 63.832031 -65.121094 C 63.832031 -54.066406 56.921875 -38.039062 38.59375 -38.039062 C 30.578125 -38.039062 23.765625 -39.515625 19.066406 -41.449219 Z M 19.066406 -41.449219 "/></g></g></g></svg>